<svg width="272" height="40" viewBox="0 0 272 40" fill="none" xmlns="http://www.w3.org/2000/svg">
<g clip-path="url(#clip0_1_62)">
<path d="M39.6099 20.4607C39.6099 19.1012 39.4997 17.7343 39.2645 16.3968H20.3999V24.0984H31.2028C30.7545 26.5823 29.3141 28.7797 27.205 30.176V35.1732H33.65C37.4347 31.6898 39.6099 26.5456 39.6099 20.4607Z" fill="#4285F4"/>
<path d="M20.4001 40.0014C25.7942 40.0014 30.3431 38.2303 33.6575 35.1731L27.2125 30.1759C25.4194 31.3958 23.1045 32.0866 20.4074 32.0866C15.1897 32.0866 10.7657 28.5665 9.17833 23.8338H2.52759V28.9854C5.92277 35.739 12.8381 40.0014 20.4001 40.0014Z" fill="#34A853"/>
<path d="M9.1708 23.8338C8.33303 21.3499 8.33303 18.6602 9.1708 16.1763V11.0247H2.52741C-0.309265 16.676 -0.309265 23.3341 2.52741 28.9854L9.1708 23.8338Z" fill="#FBBC04"/>
<path d="M20.4001 7.9161C23.2515 7.87201 26.0073 8.94494 28.0723 10.9144L33.7824 5.20436C30.1668 1.80917 25.3679 -0.0574433 20.4001 0.00134778C12.8381 0.00134778 5.92277 4.2637 2.52759 11.0247L9.17098 16.1763C10.751 11.4362 15.1824 7.9161 20.4001 7.9161Z" fill="#EA4335"/>
</g>
<g clip-path="url(#clip1_1_62)">
<path d="M156 20C156 8.9543 147.046 0 136 0C124.954 0 116 8.9543 116 20C116 29.9824 123.314 38.2566 132.875 39.757V25.7813H127.797V20H132.875V15.5938C132.875 10.5813 135.861 7.8125 140.429 7.8125C142.617 7.8125 144.906 8.20312 144.906 8.20312V13.125H142.384C139.9 13.125 139.125 14.6668 139.125 16.25V20H144.672L143.785 25.7813H139.125V39.757C148.686 38.2566 156 29.9824 156 20Z" fill="#1877F2"/>
<path d="M143.785 25.7812L144.672 20H139.125V16.25C139.125 14.6684 139.9 13.125 142.384 13.125H144.906V8.20312C144.906 8.20312 142.618 7.8125 140.429 7.8125C135.861 7.8125 132.875 10.5813 132.875 15.5938V20H127.797V25.7812H132.875V39.757C134.946 40.081 137.054 40.081 139.125 39.757V25.7812H143.785Z" fill="white"/>
</g>
<g clip-path="url(#clip2_1_62)">
<path d="M268.32 31.1726C267.715 32.5701 266.999 33.8564 266.169 35.0391C265.038 36.6514 264.113 37.7674 263.399 38.3872C262.293 39.4044 261.108 39.9254 259.839 39.955C258.928 39.955 257.829 39.6958 256.55 39.1699C255.267 38.6464 254.087 38.3872 253.009 38.3872C251.878 38.3872 250.666 38.6464 249.368 39.1699C248.069 39.6958 247.023 39.9698 246.222 39.997C245.005 40.0489 243.792 39.5131 242.581 38.3872C241.809 37.7131 240.842 36.5576 239.684 34.9206C238.442 33.1725 237.42 31.1454 236.62 28.8344C235.763 26.3382 235.333 23.9209 235.333 21.5808C235.333 18.9001 235.912 16.5881 237.073 14.6506C237.985 13.0944 239.198 11.8667 240.716 10.9655C242.234 10.0643 243.874 9.60508 245.641 9.5757C246.608 9.5757 247.875 9.8747 249.451 10.4623C251.021 11.052 252.03 11.351 252.472 11.351C252.803 11.351 253.923 11.0013 255.823 10.3043C257.619 9.65792 259.135 9.39027 260.377 9.4957C263.742 9.7673 266.271 11.0939 267.952 13.484C264.942 15.3076 263.453 17.8619 263.483 21.1386C263.51 23.6908 264.436 25.8147 266.256 27.5011C267.08 28.2838 268.001 28.8887 269.026 29.3183C268.804 29.9627 268.569 30.58 268.32 31.1726ZM260.602 0.800655C260.602 2.80111 259.871 4.66893 258.414 6.39777C256.656 8.45302 254.53 9.64064 252.224 9.45323C252.194 9.21324 252.177 8.96066 252.177 8.69523C252.177 6.7748 253.013 4.71955 254.498 3.03911C255.239 2.18827 256.182 1.48081 257.325 0.916453C258.466 0.360519 259.545 0.0530756 260.56 0.000427246C260.589 0.267857 260.602 0.535304 260.602 0.800629V0.800655Z" fill="#545454"/>
</g>
<defs>
<clipPath id="clip0_1_62">
<rect width="40" height="40" fill="white"/>
</clipPath>
<clipPath id="clip1_1_62">
<rect width="40" height="40" fill="white" transform="translate(116)"/>
</clipPath>
<clipPath id="clip2_1_62">
<rect width="40" height="40" fill="white" transform="translate(232)"/>
</clipPath>
</defs>
</svg>
